#!OML:ASF F:\VICON\USERDATA\INSTALL\rory3\rory3.ASF
:FULLY-SPECIFIED
:DEGREES
45
root -0.848662 17.4738 5.30478 1.54337 -72.5311 19.0256
lowerback -11.2712 -0.733816 6.48693
upperback -13.0414 -2.09939 -0.620062
thorax -7.89201 -1.97242 -4.3265
lowerneck -6.9256 17.1552 11.6897
upperneck 13.5252 22.0447 -1.23314
head 6.64965 11.1824 -0.157313
rclavicle -2.62396e-014 -3.18055e-014
rhumerus -2.50004 -26.3818 24.6756
rradius 118.169
rwrist -59.7072
rhand -5.47675 -52.153
rfingers 7.12502
rthumb 20.3353 -81.1083
lclavicle -2.62396e-014 -3.18055e-014
lhumerus 32.5971 31.3693 -3.4609
lradius 29.5333
lwrist 48.213
lhand -21.5065 -22.5509
lfingers 7.12502
lthumb 4.8853 7.37274
rfemur -9.9542 4.96067 -8.44923
rtibia 21.0112
rfoot -4.02223 -20.292
rtoes 4.60463
lfemur -17.4386 2.13897 -34.6764
ltibia 10.7673
lfoot -11.9959 -4.20655
ltoes 16.5828
46
root -0.843382 17.4763 5.29103 2.04718 -72.3794 18.5508
lowerback -11.262 -0.62325 6.51393
upperback -12.951 -1.95378 -0.828482
thorax -7.78708 -1.90297 -4.56365
lowerneck -7.34895 17.0009 11.9575
upperneck 13.5916 21.7213 -1.10703
head 6.73687 11.0392 -0.147333
rclavicle -3.63776e-014 -2.8625e-014
rhumerus -3.11996 -26.2876 24.621
rradius 118.125
rwrist -59.7192
rhand -4.96687 -50.4168
rfingers 7.12502
rthumb 20.8252 -79.3191
lclavicle -3.63776e-014 -2.8625e-014
lhumerus 32.982 31.1028 -3.72883
lradius 29.6876
lwrist 48.7435
lhand -21.9663 -21.2319
lfingers 7.12502
lthumb 4.44129 8.70155
rfemur -10.0366 4.89429 -8.24273
rtibia 21.1602
rfoot -2.98886 -20.4051
rtoes 0.972756
lfemur -17.516 2.22231 -34.62
ltibia 10.7042
lfoot -11.8217 -3.96706
ltoes 16.1626
47
root -0.837258 17.4748 5.27792 2.15498 -72.2516 18.4402
lowerback -11.2295 -0.870147 6.51317
upperback -13.0174 -2.27274 -0.547209
thorax -7.90877 -2.05536 -4.26786
lowerneck -6.86785 17.1877 11.2603
upperneck 13.4037 22.0757 -0.804681
head 6.5044 11.2108 -0.00179507
rclavicle 1.37161e-014 1.82882e-014
rhumerus -2.15573 -26.5016 23.8756
rradius 118.057
rwrist -59.9986
rhand -3.25481 -44.9041
rfingers 7.12502
rthumb 22.4694 -73.6169
lclavicle 1.37161e-014 1.82882e-014
lhumerus 31.4462 30.3156 -5.11711
lradius 29.9353
lwrist 49.8194
lhand -22.3191 -25.5792
lfingers 7.12502
lthumb 4.10066 4.3611
rfemur -10.0977 4.7874 -8.16676
rtibia 21.3382
rfoot -1.37638 -20.3973
rtoes -4.26351
lfemur -17.5919 2.83309 -34.8198
ltibia 10.6184
lfoot -11.6043 -4.23981
ltoes 17.3852
48
root -0.834503 17.4741 5.26671 1.83996 -72.1991 18.7511
lowerback -11.2244 -1.31705 6.45406
upperback -13.1426 -2.84965 0.0301124
thorax -8.08775 -2.32126 -3.6272
lowerneck -6.09923 17.6637 10.0432
upperneck 13.3485 22.9225 -0.526256
head 6.23288 11.6032 0.219247
rclavicle -9.93923e-016 7.15625e-015
rhumerus -0.16677 -26.92 22.6455
rradius 117.884
rwrist -60.0421
rhand -3.94895 -45.8696
rfingers 7.12502
rthumb 21.803 -74.6615
lclavicle -9.93923e-016 7.15625e-015
lhumerus 29.0847 29.7218 -6.52717
lradius 30.0264
lwrist 50.7439
lhand -22.2378 -42.0804
lfingers 7.12502
lthumb 4.17918 -12.1417
rfemur -10.1438 4.72811 -8.24207
rtibia 21.4852
rfoot -1.36765 -20.3346
rtoes -4.35863
lfemur -17.6392 3.6841 -35.1457
ltibia 10.5619
lfoot -11.4627 -5.01135
ltoes 19.185
49
root -0.832745 17.4781 5.25871 1.67315 -72.1036 18.9334
lowerback -11.2672 -0.640311 6.43933
upperback -12.9461 -1.97518 -0.935826
thorax -7.78276 -1.91218 -4.63856
lowerneck -7.13421 17.0816 11.7762
upperneck 13.9052 21.8607 -0.923629
head 6.77154 11.1172 -0.0617428
rclavicle -4.11484e-014 -2.8625e-014
rhumerus -2.84733 -26.1345 23.8379
rradius 117.986
rwrist -60.1203
rhand -3.80912 -45.2844
rfingers 7.12502
rthumb 21.9373 -74.0606
lclavicle -4.11484e-014 -2.8625e-014
lhumerus 32.4054 30.6631 -4.16362
lradius 29.5979
lwrist 50.3456
lhand -20.6295 -32.9592
lfingers 7.12502
lthumb 5.73208 -3.05677
rfemur -10.1783 4.6331 -8.28072
rtibia 21.6169
rfoot -2.52948 -20.2507
rtoes -0.669694
lfemur -17.5838 3.65041 -35.1646
ltibia 10.4912
lfoot -11.3919 -5.10997
ltoes 18.8614
50
root -0.827689 17.4842 5.24941 1.94157 -71.9243 18.6994
lowerback -11.315 -0.459388 6.58879
upperback -12.8796 -1.75371 -1.24378
thorax -7.67455 -1.82289 -5.05012
lowerneck -7.41049 16.8848 12.4329
upperneck 14.06 21.5131 -1.19371
head 6.95142 10.954 -0.216894
rclavicle -7.15625e-015 -1.35174e-014
rhumerus -3.49707 -25.8734 23.9694
rradius 118.094
rwrist -60.2169
rhand -4.09708 -45.2574
rfingers 7.12502
rthumb 21.6607 -74.0657
lclavicle -7.15625e-015 -1.35174e-014
lhumerus 33.4449 30.7535 -3.52971
lradius 29.6351
lwrist 49.3762
lhand -21.9485 -22.4759
lfingers 7.12502
lthumb 4.45855 7.45716
rfemur -10.2091 4.49274 -8.16901
rtibia 21.7191
rfoot -3.649 -20.1822
rtoes 2.86066
lfemur -17.5469 2.95243 -34.8878
ltibia 10.4585
lfoot -11.339 -4.65988
ltoes 17.0365
51
root -0.820791 17.4857 5.23803 1.99065 -71.7445 18.7033
lowerback -11.3349 -0.45665 6.62473
upperback -12.8788 -1.75377 -1.27659
thorax -7.66673 -1.82722 -5.10646
lowerneck -7.43994 16.8742 12.3377
upperneck 14.1734 21.4937 -1.09753
head 6.97093 10.9478 -0.173293
rclavicle 6.95746e-015 -1.43125e-014
rhumerus -3.47789 -25.8614 23.9423
rradius 118.225
rwrist -60.2414
rhand -5.09255 -46.9602
rfingers 7.12502
rthumb 20.7045 -75.8758
lclavicle 6.95746e-015 -1.43125e-014
lhumerus 33.6214 30.8275 -3.22597
lradius 29.63
lwrist 49.0197
lhand -21.9296 -21.0586
lfingers 7.12502
lthumb 4.47678 8.87405
rfemur -10.2294 4.39309 -8.14168
rtibia 21.7786
rfoot -3.53752 -20.2513
rtoes 2.11934
lfemur -17.6227 2.56621 -34.8076
ltibia 10.523
lfoot -11.3818 -4.4106
ltoes 15.8506
52
root -0.812533 17.4884 5.22541 2.01616 -71.561 18.746
lowerback -11.3155 -0.477157 6.54324
upperback -12.9097 -1.77387 -1.25561
thorax -7.7096 -1.83171 -5.03743
lowerneck -7.39683 16.8545 12.0418
upperneck 14.2285 21.4822 -0.909222
head 6.92713 10.9447 -0.0911821
rclavicle 9.93923e-016 1.35174e-014
rhumerus -3.20123 -25.8101 23.7872
rradius 118.19
rwrist -60.0006
rhand -5.61617 -48.1909
rfingers 7.12502
rthumb 20.2013 -77.1605
lclavicle 9.93923e-016 1.35174e-014
lhumerus 33.8239 30.8896 -2.84476
lradius 29.6261
lwrist 48.4962
lhand -21.7484 -25.7711
lfingers 7.12502
lthumb 4.65173 4.15785
rfemur -10.2733 4.31655 -8.12894
rtibia 21.8447
rfoot -2.0434 -20.3512
rtoes -2.94232
lfemur -17.7356 2.37073 -34.8193
ltibia 10.5712
lfoot -11.416 -4.2668
ltoes 15.7744
53
root -0.804526 17.4965 5.21398 2.44883 -71.355 18.3523
lowerback -11.2808 -0.559395 6.55067
upperback -12.9474 -1.8751 -1.11195
thorax -7.77978 -1.87876 -4.88824
lowerneck -7.27068 16.8774 11.6017
upperneck 14.2306 21.5602 -0.730987
head 6.84235 10.9786 0.00370224
rclavicle -5.32743e-014 -4.21423e-014
rhumerus -2.83307 -25.8668 23.5715
rradius 118.167
rwrist -59.9858
rhand -5.39037 -47.6408
rfingers 7.12502
rthumb 20.4183 -76.5873
lclavicle -5.32743e-014 -4.21423e-014
lhumerus 33.6529 30.7575 -2.83184
lradius 29.6428
lwrist 48.2152
lhand -21.9125 -29.173
lfingers 7.12502
lthumb 4.49323 0.759309
rfemur -10.3372 4.21618 -7.94197
rtibia 21.9496
rfoot 1.12529 -20.2188
rtoes -12.4755
lfemur -17.7998 2.13007 -34.646
ltibia 10.5302
lfoot -11.3131 -4.21103
ltoes 16.642
54
root -0.799656 17.4986 5.20745 2.59105 -71.1761 18.146
lowerback -11.2179 -0.651773 6.54705
upperback -12.9249 -1.98391 -0.986743
thorax -7.79756 -1.92361 -4.75369
lowerneck -7.21793 16.9745 11.2226
upperneck 14.2723 21.7216 -0.545446
head 6.79245 11.0545 0.112797
rclavicle 5.26779e-014 -5.56597e-015
rhumerus -2.50182 -25.9938 23.2456
rradius 118.23
rwrist -60.1189
rhand -5.23994 -47.1212
rfingers 7.12502
rthumb 20.5629 -76.0521
lclavicle 5.26779e-014 -5.56597e-015
lhumerus 33.2763 30.5213 -3.07674
lradius 29.6464
lwrist 48.3649
lhand -21.9729 -29.9305
lfingers 7.12502
lthumb 4.43491 0.00309228
rfemur -10.2836 4.07182 -7.82554
rtibia 22.0614
rfoot 4.00208 -19.6042
rtoes -20.1031
lfemur -17.7296 2.06404 -34.5851
ltibia 10.4869
lfoot -11.1901 -4.27103
ltoes 17.2418
55
root -0.795306 17.497 5.20041 2.47873 -71.0217 18.1723
lowerback -11.1534 -0.749214 6.52782
upperback -12.8751 -2.10105 -0.937519
thorax -7.78922 -1.97332 -4.69315
lowerneck -7.16881 17.0785 11.2129
upperneck 14.3595 21.8895 -0.632912
head 6.83076 11.1291 0.109966
rclavicle -4.49253e-014 -2.54444e-014
rhumerus -2.00582 -26.0857 22.7384
rradius 118.122
rwrist -60.1625
rhand -5.24613 -47.3615
rfingers 7.12502
rthumb 20.5569 -76.2931
lclavicle -4.49253e-014 -2.54444e-014
lhumerus 32.8201 30.1787 -3.56026
lradius 29.7512
lwrist 48.5885
lhand -22.457 -32.5208
lfingers 7.12502
lthumb 3.96749 -2.57803
rfemur -10.1706 4.01343 -7.80645
rtibia 22.1526
rfoot 4.7129 -19.3303
rtoes -21.9689
lfemur -17.6608 2.29402 -34.7174
ltibia 10.4683
lfoot -11.1431 -4.3385
ltoes 16.5704
